<svg width="1465" height="146" viewBox="0 0 1465 146" fill="none" xmlns="http://www.w3.org/2000/svg">
<path d="M-9.69172e-05 143.6V2.40009H21.9999L31.3999 30.6001V143.6H-9.69172e-05ZM97.3999 143.6L14.1999 37.0001L21.9999 2.40009L105.2 109L97.3999 143.6ZM97.3999 143.6L88.9999 115.4V2.40009H120.4V143.6H97.3999ZM215.056 146C204.389 146 194.523 144.133 185.456 140.4C176.523 136.667 168.656 131.467 161.856 124.8C155.056 118.133 149.789 110.4 146.056 101.6C142.323 92.6668 140.456 83.0668 140.456 72.8001C140.456 62.4001 142.323 52.8001 146.056 44.0001C149.789 35.2001 154.989 27.5334 161.656 21.0001C168.323 14.3334 176.123 9.20009 185.056 5.60009C194.123 1.86675 203.989 8.67844e-05 214.656 8.67844e-05C225.189 8.67844e-05 234.923 1.86675 243.856 5.60009C252.923 9.20009 260.789 14.3334 267.456 21.0001C274.256 27.5334 279.523 35.2668 283.256 44.2001C286.989 53.0001 288.856 62.6001 288.856 73.0001C288.856 83.2668 286.989 92.8668 283.256 101.8C279.523 110.6 274.323 118.333 267.656 125C260.989 131.533 253.123 136.667 244.056 140.4C235.123 144.133 225.456 146 215.056 146ZM214.656 117.4C223.056 117.4 230.389 115.533 236.656 111.8C243.056 108.067 247.989 102.867 251.456 96.2001C254.923 89.4001 256.656 81.6001 256.656 72.8001C256.656 66.1334 255.656 60.1334 253.656 54.8001C251.656 49.3334 248.789 44.6668 245.056 40.8001C241.323 36.8001 236.856 33.8001 231.656 31.8001C226.589 29.6668 220.923 28.6001 214.656 28.6001C206.256 28.6001 198.856 30.4668 192.456 34.2001C186.189 37.8001 181.323 42.9334 177.856 49.6001C174.389 56.1334 172.656 63.8668 172.656 72.8001C172.656 79.4668 173.656 85.5334 175.656 91.0001C177.656 96.4668 180.456 101.2 184.056 105.2C187.789 109.067 192.256 112.067 197.456 114.2C202.656 116.333 208.389 117.4 214.656 117.4ZM391.553 143.6L352.153 80.6001H348.353L293.953 2.40009H331.353L370.153 61.6001H373.953L428.353 143.6H391.553ZM291.353 143.6L343.553 68.0001L367.753 81.6001L327.153 143.6H291.353ZM375.153 77.0001L350.953 63.4001L390.153 2.40009H425.953L375.153 77.0001ZM442.187 143.6V2.40009H473.587V143.6H442.187ZM540.447 145.8C528.847 145.8 518.847 143.933 510.447 140.2C502.18 136.333 494.58 130.533 487.647 122.8L508.047 102.6C512.58 107.8 517.58 111.867 523.047 114.8C528.647 117.6 535.113 119 542.447 119C549.113 119 554.247 117.8 557.847 115.4C561.58 113 563.447 109.667 563.447 105.4C563.447 101.533 562.247 98.4001 559.847 96.0001C557.447 93.6001 554.247 91.5334 550.247 89.8001C546.38 88.0668 542.047 86.4001 537.247 84.8001C532.58 83.2001 527.913 81.4001 523.247 79.4001C518.58 77.2668 514.247 74.6668 510.247 71.6001C506.38 68.4001 503.247 64.4668 500.847 59.8001C498.447 55.0001 497.247 49.0001 497.247 41.8001C497.247 33.1334 499.313 25.6668 503.447 19.4001C507.713 13.1334 513.58 8.40009 521.047 5.20009C528.513 1.86676 537.113 0.200096 546.847 0.200096C556.713 0.200096 565.713 1.93343 573.847 5.40009C582.113 8.86676 588.913 13.6001 594.247 19.6001L573.847 39.8001C569.58 35.4001 565.247 32.1334 560.847 30.0001C556.58 27.8668 551.713 26.8001 546.247 26.8001C540.78 26.8001 536.447 27.8668 533.247 30.0001C530.047 32.0001 528.447 34.9334 528.447 38.8001C528.447 42.4001 529.647 45.3334 532.047 47.6001C534.447 49.7334 537.58 51.6001 541.447 53.2001C545.447 54.8001 549.78 56.4001 554.447 58.0001C559.247 59.6001 563.98 61.4668 568.647 63.6001C573.313 65.7334 577.58 68.4668 581.447 71.8001C585.447 75.0001 588.647 79.1334 591.047 84.2001C593.447 89.1334 594.647 95.2668 594.647 102.6C594.647 116.067 589.847 126.667 580.247 134.4C570.647 142 557.38 145.8 540.447 145.8ZM636.47 143.6L692.47 2.40009H720.87L776.27 143.6H743.07L700.67 26.4001H712.07L669.07 143.6H636.47ZM668.27 118V92.4001H745.27V118H668.27ZM850.194 145.8C839.927 145.8 830.26 143.933 821.194 140.2C812.26 136.467 804.46 131.333 797.794 124.8C791.127 118.133 785.86 110.4 781.994 101.6C778.26 92.6668 776.394 83.0668 776.394 72.8001C776.394 62.5334 778.327 53.0001 782.194 44.2001C786.06 35.4001 791.394 27.7334 798.194 21.2001C805.127 14.5334 813.194 9.40009 822.394 5.8001C831.594 2.06676 841.46 0.200096 851.994 0.200096C864.127 0.200096 875.127 2.4001 884.994 6.80009C894.994 11.2001 903.26 17.2668 909.794 25.0001L888.394 46.4001C883.86 40.5334 878.527 36.1334 872.394 33.2001C866.26 30.2668 859.327 28.8001 851.594 28.8001C843.327 28.8001 835.927 30.6668 829.394 34.4001C822.86 38.0001 817.727 43.1334 813.994 49.8001C810.394 56.3334 808.594 64.0001 808.594 72.8001C808.594 81.6001 810.394 89.3334 813.994 96.0001C817.594 102.667 822.527 107.867 828.794 111.6C835.06 115.333 842.26 117.2 850.394 117.2C858.66 117.2 865.66 115.667 871.394 112.6C877.26 109.4 881.727 104.867 884.794 99.0001C887.994 93.0001 889.594 85.7334 889.594 77.2001L910.394 91.2001L847.394 90.2001V63.6001H921.594V68.2001C921.594 85.1334 918.527 99.4001 912.394 111C906.394 122.467 897.994 131.133 887.194 137C876.527 142.867 864.194 145.8 850.194 145.8ZM940.625 143.6V2.40009H972.025V143.6H940.625ZM964.625 143.6V116.4H1042.02V143.6H964.625ZM964.625 84.6001V58.4001H1035.02V84.6001H964.625ZM964.625 29.4001V2.40009H1041.02V29.4001H964.625ZM1063.67 143.6V2.40009H1085.67L1095.07 30.6001V143.6H1063.67ZM1161.07 143.6L1077.87 37.0001L1085.67 2.40009L1168.87 109L1161.07 143.6ZM1161.07 143.6L1152.67 115.4V2.40009H1184.07V143.6H1161.07ZM1278.33 145.8C1267.79 145.8 1257.99 144 1248.93 140.4C1239.99 136.667 1232.13 131.467 1225.33 124.8C1218.66 118.133 1213.46 110.4 1209.73 101.6C1205.99 92.6668 1204.13 83.0668 1204.13 72.8001C1204.13 62.5334 1205.99 53.0001 1209.73 44.2001C1213.46 35.2668 1218.66 27.5334 1225.33 21.0001C1231.99 14.4668 1239.79 9.40009 1248.73 5.8001C1257.79 2.06676 1267.59 0.200096 1278.13 0.200096C1289.33 0.200096 1299.26 2.00009 1307.93 5.60009C1316.73 9.20009 1324.39 14.1334 1330.93 20.4001L1309.93 41.6001C1306.19 37.6001 1301.66 34.4668 1296.33 32.2001C1291.13 29.9334 1285.06 28.8001 1278.13 28.8001C1271.99 28.8001 1266.33 29.8668 1261.13 32.0001C1256.06 34.0001 1251.66 36.9334 1247.93 40.8001C1244.33 44.6668 1241.46 49.3334 1239.33 54.8001C1237.33 60.2668 1236.33 66.2668 1236.33 72.8001C1236.33 79.4668 1237.33 85.5334 1239.33 91.0001C1241.46 96.4668 1244.33 101.133 1247.93 105C1251.66 108.867 1256.06 111.867 1261.13 114C1266.33 116.133 1271.99 117.2 1278.13 117.2C1285.33 117.2 1291.59 116.067 1296.93 113.8C1302.26 111.533 1306.86 108.4 1310.73 104.4L1331.93 125.6C1325.13 131.867 1317.33 136.8 1308.53 140.4C1299.86 144 1289.79 145.8 1278.33 145.8ZM1386.95 91.0001L1332.55 2.40009H1368.95L1410.75 74.0001H1387.35L1429.15 2.40009H1464.75L1409.95 91.0001H1386.95ZM1383.15 143.6V76.6001H1414.55V143.6H1383.15Z" fill="black"/>
</svg>
